# xmcd CD database file
#
# Track frame offsets:
#	150
#	18308
#	48631
#	74313
#	99280
#	129660
#	158620
#	182174
#	210657
#	229979
#	262544
#	280332
#
# Disc length: 4042 seconds
#
# Revision: 0
# Processed by: cddbd v1.5.2PL0 Copyright (c) Steve Scherf et al.
# Submitted via: CDex 1.51
#
DISCID=a00fc80c
DTITLE=Chet Baker and Art Pepper - Playboys
DYEAR=1956
DGENRE=Jazz
TTITLE0=For Minors Only
TTITLE1=Minor Yours
TTITLE2=Resonant Emotions
TTITLE3=Tynan Time
TTITLE4=Picture of Heath
TTITLE5=For Miles and Miles
TTITLE6=CTA
TTITLE7=Tynan Time
TTITLE8=Little Girl
TTITLE9=Minor Yours
TTITLE10=Sonny Boy
TTITLE11=The Route
EXTD=YEAR: 1956
EXTT0=
EXTT1=
EXTT2=
EXTT3=
EXTT4=
EXTT5=
EXTT6=
EXTT7=
EXTT8=
EXTT9=
EXTT10=
EXTT11=
PLAYORDER=
